PathFileType  4	(X/Y/Z) C:\Users\antoi\Documents\MyRepositories\mobilecap\ResultsAnalysis
DataRate	CameraRate	NumFrames	NumMarkers	Units	OrigDataRate	OrigDataStartFrame	OrigNumFrames
100.0	100.0	4	51	mm	100.0	156	249
Frame#	Time	r_knee			r_shank_antsup			r_ankle			r_calc			r_5meta			r_toe			L_knee			L_shank_antsup			L_ankle			L_calc			L_5meta			L_toe			r_sh2			r_sh3			r_sh4			L_sh2			L_sh3			r_thigh1			r_thigh2			r_thigh3			r_thigh4			r_thigh5			L_thigh1			L_thigh2			L_thigh3			L_thigh4			r.ASIS			r.PSIS			L.ASIS			L.PSIS			C7			R_Shoulder			L_Shoulder			R_Sternum			L_Sternum			R_humerus			R_elbow_med			R_elbow_lat			R_forearm			R_wrist_radius			R_wrist_ulna			L_humerus			L_elbow_med			L_elbow_lat			L_forearm			L_wrist_radius			L_wrist_ulna			R_HJC			L_HJC			R_HJC_reg			L_HJC_reg			
		X1	Y1	Z1	X2	Y2	Z2	X3	Y3	Z3	X4	Y4	Z4	X5	Y5	Z5	X6	Y6	Z6	X7	Y7	Z7	X8	Y8	Z8	X9	Y9	Z9	X10	Y10	Z10	X11	Y11	Z11	X12	Y12	Z12	X13	Y13	Z13	X14	Y14	Z14	X15	Y15	Z15	X16	Y16	Z16	X17	Y17	Z17	X18	Y18	Z18	X19	Y19	Z19	X20	Y20	Z20	X21	Y21	Z21	X22	Y22	Z22	X23	Y23	Z23	X24	Y24	Z24	X25	Y25	Z25	X26	Y26	Z26	X27	Y27	Z27	X28	Y28	Z28	X29	Y29	Z29	X30	Y30	Z30	X31	Y31	Z31	X32	Y32	Z32	X33	Y33	Z33	X34	Y34	Z34	X35	Y35	Z35	X36	Y36	Z36	X37	Y37	Z37	X38	Y38	Z38	X39	Y39	Z39	X40	Y40	Z40	X41	Y41	Z41	X42	Y42	Z42	X43	Y43	Z43	X44	Y44	Z44	X45	Y45	Z45	X46	Y46	Z46	X47	Y47	Z47	X48	Y48	Z48	X49	Y49	Z49	X50	Y50	Z50	X51	Y51	Z51	

156	1.55000000	-78.87845	402.97775	-416.12478	-82.56791	334.06628	-396.53550	-258.58025	94.38768	-444.12268	-336.14304	62.05069	-488.36527	-170.34171	43.71991	-412.58368	-121.88759	59.28108	-466.17991	-120.36256	388.55621	-821.67092	-101.82848	313.04029	-827.61275	-306.08084	95.74379	-779.68526	-384.34604	64.19415	-731.67285	-225.16572	41.46447	-809.67965	-171.09964	59.55583	-755.69948	-139.89363	236.05377	-398.06356	-146.10225	371.88249	-409.49149	-211.52121	275.82763	-414.43657	-174.15554	364.20511	-843.42782	-235.76170	258.74258	-833.86778	-347.64119	547.17842	-455.28355	-229.47884	524.73334	-432.69713	-221.17158	478.96886	-385.14618	-364.37163	472.93187	-371.35775	-255.07144	433.03216	-379.50571	-358.24633	536.83240	-768.07773	-229.46785	504.07629	-791.03453	-399.90598	429.87924	-794.02570	-261.17143	402.83230	-816.74608	-348.25861	545.80601	-456.06668	-514.47406	614.61958	-522.28236	-369.89829	541.32861	-714.00891	-528.38552	611.79529	-629.48282	-87.71342	876.06732	-597.19518	-62.38732	786.86098	-478.13673	-75.29851	804.94222	-747.70415	-66.30551	723.80513	-589.98088	-65.86187	726.65421	-633.53228	5.24990	599.90666	-386.80195	7.74078	477.64353	-433.18674	35.65724	522.85014	-365.71281	102.33993	588.15706	-439.97207	154.97046	641.21898	-518.49155	188.75979	611.09138	-518.46888	-31.11336	718.95399	-808.43625	2.40391	501.42880	-834.18216	18.51421	538.04004	-895.83395	77.29236	613.43354	-828.34597	123.20164	669.92289	-735.26128	157.22535	656.53592	-745.08188	-433.54394	492.84720	-479.15118	-444.77121	490.32140	-679.11300	-430.56107	487.05262	-480.73005	-452.54239	482.58952	-650.11670	
157	1.56000000	-76.84031	401.57127	-415.45028	-80.86132	332.57156	-396.29403	-258.49287	94.33209	-444.43714	-336.10959	62.00993	-488.49562	-170.33999	43.74428	-412.62870	-121.87674	59.19883	-466.26578	-119.43355	387.77658	-822.90107	-101.14158	312.14457	-828.99108	-306.00606	95.71806	-779.77016	-384.21213	64.40279	-731.55183	-225.17372	41.39345	-809.72698	-171.03163	59.45661	-755.70810	-138.82168	234.84558	-398.07677	-144.27190	370.83276	-409.02849	-210.18841	274.92818	-414.24252	-173.44088	363.56640	-844.68226	-235.42147	258.22570	-834.47707	-345.04892	546.55518	-454.15321	-227.08273	523.56336	-431.04842	-219.08507	477.01734	-384.23552	-362.31558	471.57409	-371.01948	-253.25485	431.24036	-379.30155	-356.68675	536.98579	-768.23884	-228.08172	503.79598	-791.67797	-398.88778	430.16941	-793.80392	-260.45591	402.51235	-817.02829	-345.46055	544.29424	-455.88893	-511.64127	615.06698	-521.09183	-368.23424	541.19551	-713.19696	-525.57252	612.49321	-628.42738	-84.24087	873.60560	-597.77955	-58.44302	784.04268	-478.68920	-71.76587	802.16878	-748.33578	-62.73261	721.37786	-590.31134	-62.28828	724.12242	-633.77593	6.15523	594.64536	-390.36430	5.45189	473.78994	-437.68639	34.17191	517.63765	-367.94007	98.95648	584.49490	-441.69515	150.57193	640.69028	-518.94160	184.68108	610.89480	-520.45763	-27.84672	715.55953	-808.35148	6.07102	498.11618	-829.70591	22.00272	533.41806	-892.82310	79.12064	611.03439	-827.05737	123.23543	670.56360	-734.85977	157.37357	657.68636	-744.31551	-431.44888	492.27946	-478.68893	-443.31835	490.61428	-678.62128	-428.83358	486.91349	-480.50782	-450.77265	482.86015	-649.54283	
158	1.57000000	-74.89455	400.19621	-415.05381	-79.13525	331.25574	-395.96986	-258.32190	94.42813	-444.55243	-336.00070	62.19653	-488.56939	-170.32390	43.67909	-412.63585	-121.81008	59.05308	-466.26408	-118.33144	387.12599	-823.91951	-100.34029	311.44385	-830.23115	-305.76927	95.85464	-779.89317	-384.02717	64.80900	-731.51486	-225.11675	41.30151	-809.67481	-170.89053	59.34972	-755.71259	-137.67411	233.82050	-397.93759	-142.42506	369.84912	-408.65183	-208.71337	274.21222	-413.96339	-172.56646	363.09434	-845.78374	-234.83005	258.02743	-835.13499	-342.29389	546.17254	-453.47957	-224.54715	522.81383	-429.54151	-216.93483	475.63751	-383.26104	-360.31481	470.68727	-370.57938	-251.33419	430.07641	-378.94445	-354.70419	537.38722	-767.91953	-226.39934	503.70081	-792.47537	-397.54027	430.80350	-793.29969	-259.31119	402.51588	-817.40077	-342.38425	544.09480	-456.04670	-508.79419	616.07398	-520.23738	-366.36578	542.02576	-712.75142	-522.85882	613.63326	-627.53655	-81.48448	872.23559	-597.99087	-55.08583	781.12779	-478.66009	-68.57293	800.70721	-748.73141	-59.36484	720.10524	-590.64641	-58.89834	722.84331	-633.97117	6.72473	590.93218	-393.34960	2.44346	471.65596	-440.47661	32.03343	513.51753	-370.65559	95.27219	582.12968	-442.96382	146.08976	641.03676	-518.69261	180.63400	611.63895	-521.29773	-24.95540	713.51691	-807.85138	9.03368	496.09070	-826.07558	24.89543	530.53419	-890.37730	80.30770	609.98806	-826.02299	122.59564	672.05433	-734.74595	156.91114	659.63905	-743.81313	-428.84163	492.64892	-478.45631	-441.48109	491.62609	-678.34612	-426.50453	487.68434	-480.48672	-448.61509	483.84768	-649.16947	
159	1.58000000	-72.91400	399.13843	-414.77261	-77.38012	330.20710	-395.75765	-258.02323	94.69831	-444.59385	-335.79294	62.68345	-488.54943	-170.19924	43.62735	-412.67679	-121.64472	58.90655	-466.22059	-117.10474	386.64418	-824.72691	-99.54311	310.78142	-830.76576	-305.36327	96.20659	-779.90559	-383.78113	65.40468	-731.43606	-225.02276	41.27892	-809.56552	-170.64018	59.19750	-755.78528	-136.37064	233.14021	-397.86657	-140.49641	369.16723	-408.26541	-207.11647	274.02309	-413.63298	-171.45477	362.77346	-846.52865	-233.95910	258.06339	-835.65212	-339.43339	546.63523	-452.91342	-221.93444	522.57923	-428.48889	-214.63427	475.06848	-382.54919	-358.15342	470.70899	-370.07742	-249.24505	429.73701	-378.57836	-352.35750	538.22702	-767.36578	-224.40557	503.85174	-793.16696	-395.87439	431.93187	-792.72607	-257.81403	402.88010	-817.67018	-339.42560	544.93696	-455.88872	-505.97457	617.68612	-519.60813	-363.74007	543.33302	-712.33282	-520.17051	615.32942	-626.75335	-79.55540	872.08930	-598.18663	-52.24918	779.38984	-478.27574	-65.67537	800.61222	-749.03410	-56.24472	720.13772	-590.84185	-55.69234	722.91073	-634.20307	6.85447	588.81774	-395.49966	-0.64745	470.35138	-442.23097	29.36032	509.90608	-374.24021	91.52758	581.23906	-443.48448	141.62381	642.50071	-517.69359	176.58206	613.50973	-520.83934	-22.42755	712.88815	-807.16941	11.06231	495.24440	-823.83637	27.06392	529.35480	-888.46078	81.01006	610.42748	-825.28523	121.27368	674.82007	-735.27576	155.84093	662.60515	-743.63389	-426.16655	493.85152	-478.09248	-439.11422	493.15329	-677.96499	-423.81298	489.07586	-480.19337	-446.13843	485.36982	-648.69559	
